<svg width="2127" height="514" viewBox="0 0 2127 514" fill="none" xmlns="http://www.w3.org/2000/svg">
<path d="M71.2114 443.795C67.924 428.502 53.5019 427.795 38.364 416.509C16.161 399.941 0.983495 407.109 0.0423517 420.281C-0.912047 433.438 14.5571 441.285 16.8503 454.886C16.8636 454.928 16.8636 454.969 16.8769 455.011C16.8901 455.052 16.8902 455.094 16.9034 455.136C19.7136 468.626 8.2608 482.019 13.9209 493.831C19.5678 505.63 36.2167 506.226 50.7448 482.088C60.6334 465.631 73.7167 459.239 71.2114 443.795Z" fill="#EADDFF"/>
<path d="M75.0952 404.461C65.5247 415.275 52.3751 418.797 45.7209 412.35C39.0533 405.903 41.4128 391.914 50.9833 381.1C60.5538 370.299 73.7034 366.777 80.3577 373.224C87.0252 379.671 84.6657 393.661 75.0952 404.461Z" fill="#EADDFF"/>
<path d="M89.0928 478.622C76.3145 472.424 62.8602 474.393 59.0559 483.003C55.2383 491.613 62.5023 503.619 75.2674 509.817C88.0457 516 101.487 514.045 105.304 505.422C109.122 496.812 101.858 484.819 89.0928 478.622Z" fill="#EADDFF"/>
<path d="M109.44 431.76C95.6015 437.389 81.5772 434.394 78.1043 425.064C74.6313 415.733 83.0353 403.601 96.874 397.973C110.713 392.344 124.737 395.338 128.21 404.669C131.683 414 123.279 426.131 109.44 431.76Z" fill="#EADDFF"/>
<path d="M110.952 439.719C96.1054 440.01 84.2151 448.356 84.3875 458.366C84.573 468.376 96.7549 476.265 111.588 475.974C126.434 475.683 138.324 467.336 138.152 457.326C137.966 447.316 125.798 439.427 110.952 439.719Z" fill="#EADDFF"/>
<path d="M690.211 397.795C686.924 382.502 672.502 381.795 657.364 370.509C635.161 353.941 619.983 361.109 619.042 374.281C618.088 387.438 633.557 395.285 635.85 408.886C635.864 408.928 635.864 408.969 635.877 409.011C635.89 409.052 635.89 409.094 635.903 409.136C638.714 422.626 627.261 436.019 632.921 447.831C638.568 459.63 655.217 460.226 669.745 436.088C679.633 419.631 692.717 413.239 690.211 397.795Z" fill="#EADDFF"/>
<path d="M694.095 358.461C684.524 369.275 671.375 372.797 664.72 366.35C658.053 359.903 660.412 345.914 669.983 335.099C679.553 324.299 692.703 320.777 699.357 327.224C706.025 333.671 703.665 347.661 694.095 358.461Z" fill="#EADDFF"/>
<path d="M708.093 432.622C695.315 426.424 681.86 428.393 678.056 437.003C674.238 445.613 681.502 457.619 694.267 463.817C707.046 470 720.487 468.045 724.304 459.422C728.122 450.812 720.858 438.819 708.093 432.622Z" fill="#EADDFF"/>
<path d="M728.44 385.76C714.601 391.389 700.577 388.394 697.104 379.063C693.631 369.733 702.035 357.601 715.874 351.972C729.712 346.343 743.737 349.338 747.21 358.669C750.683 368 742.279 380.131 728.44 385.76Z" fill="#EADDFF"/>
<path d="M729.951 393.718C715.105 394.01 703.215 402.356 703.387 412.366C703.572 422.376 715.754 430.265 730.587 429.974C745.433 429.683 757.324 421.336 757.151 411.326C756.966 401.316 744.797 393.427 729.951 393.718Z" fill="#EADDFF"/>
<path d="M349.211 262.795C345.924 247.502 331.502 246.795 316.364 235.51C294.161 218.942 278.983 226.11 278.042 239.281C277.088 252.438 292.557 260.285 294.85 273.886C294.864 273.928 294.864 273.97 294.877 274.011C294.89 274.053 294.89 274.094 294.903 274.136C297.714 287.626 286.261 301.019 291.921 312.832C297.568 324.63 314.217 325.226 328.745 301.088C338.633 284.631 351.717 278.24 349.211 262.795Z" fill="#EADDFF"/>
<path d="M353.095 223.461C343.525 234.275 330.375 237.797 323.721 231.35C317.053 224.903 319.413 210.914 328.983 200.1C338.554 189.299 351.703 185.777 358.358 192.224C365.025 198.671 362.666 212.661 353.095 223.461Z" fill="#EADDFF"/>
<path d="M367.093 297.622C354.315 291.425 340.86 293.394 337.056 302.003C333.238 310.613 340.502 322.62 353.267 328.817C366.046 335.001 379.487 333.046 383.304 324.422C387.122 315.812 379.858 303.82 367.093 297.622Z" fill="#EADDFF"/>
<path d="M387.44 250.76C373.601 256.389 359.577 253.395 356.104 244.064C352.631 234.733 361.035 222.602 374.874 216.973C388.713 211.344 402.737 214.339 406.21 223.669C409.683 233 401.279 245.131 387.44 250.76Z" fill="#EADDFF"/>
<path d="M388.952 258.719C374.105 259.01 362.215 267.356 362.387 277.367C362.573 287.377 374.755 295.265 389.588 294.974C404.434 294.683 416.324 286.337 416.152 276.327C415.966 266.317 403.798 258.428 388.952 258.719Z" fill="#EADDFF"/>
<path d="M888.211 191.795C884.924 176.502 870.502 175.795 855.364 164.51C833.161 147.942 817.983 155.11 817.042 168.281C816.088 181.438 831.557 189.285 833.85 202.886C833.864 202.928 833.864 202.97 833.877 203.011C833.89 203.053 833.89 203.094 833.903 203.136C836.714 216.626 825.261 230.019 830.921 241.831C836.568 253.63 853.217 254.226 867.745 230.088C877.633 213.631 890.717 207.24 888.211 191.795Z" fill="#EADDFF"/>
<path d="M892.095 152.461C882.525 163.275 869.375 166.797 862.721 160.35C856.053 153.903 858.413 139.914 867.983 129.1C877.554 118.299 890.703 114.777 897.358 121.224C904.025 127.671 901.666 141.661 892.095 152.461Z" fill="#EADDFF"/>
<path d="M906.093 226.622C893.315 220.425 879.86 222.394 876.056 231.004C872.238 239.613 879.502 251.62 892.267 257.817C905.046 264.001 918.487 262.046 922.304 253.422C926.122 244.812 918.858 232.82 906.093 226.622Z" fill="#EADDFF"/>
<path d="M926.44 179.76C912.602 185.389 898.577 182.395 895.104 173.064C891.631 163.733 900.035 151.602 913.874 145.973C927.713 140.344 941.737 143.339 945.21 152.669C948.683 162 940.279 174.131 926.44 179.76Z" fill="#EADDFF"/>
<path d="M927.951 187.719C913.105 188.01 901.215 196.356 901.387 206.367C901.573 216.377 913.755 224.265 928.588 223.974C943.434 223.683 955.324 215.337 955.152 205.327C954.966 195.317 942.798 187.428 927.951 187.719Z" fill="#EADDFF"/>
<path d="M1296.21 345.795C1292.92 330.502 1278.5 329.795 1263.36 318.509C1241.16 301.941 1225.98 309.109 1225.04 322.281C1224.09 335.438 1239.56 343.285 1241.85 356.886C1241.86 356.928 1241.86 356.969 1241.88 357.011C1241.89 357.052 1241.89 357.094 1241.9 357.136C1244.71 370.626 1233.26 384.019 1238.92 395.831C1244.57 407.63 1261.22 408.226 1275.74 384.088C1285.63 367.631 1298.72 361.239 1296.21 345.795Z" fill="#EADDFF"/>
<path d="M1300.1 306.461C1290.52 317.275 1277.38 320.797 1270.72 314.35C1264.05 307.903 1266.41 293.914 1275.98 283.1C1285.55 272.299 1298.7 268.777 1305.36 275.224C1312.03 281.671 1309.67 295.661 1300.1 306.461Z" fill="#EADDFF"/>
<path d="M1314.09 380.622C1301.31 374.424 1287.86 376.393 1284.06 385.003C1280.24 393.613 1287.5 405.619 1300.27 411.817C1313.05 418 1326.49 416.045 1330.3 407.422C1334.12 398.812 1326.86 386.819 1314.09 380.622Z" fill="#EADDFF"/>
<path d="M1334.44 333.76C1320.6 339.389 1306.58 336.395 1303.1 327.064C1299.63 317.733 1308.04 305.602 1321.87 299.973C1335.71 294.344 1349.74 297.339 1353.21 306.669C1356.68 316 1348.28 328.131 1334.44 333.76Z" fill="#EADDFF"/>
<path d="M1335.95 341.719C1321.11 342.01 1309.22 350.356 1309.39 360.366C1309.57 370.376 1321.75 378.265 1336.59 377.974C1351.43 377.683 1363.32 369.336 1363.15 359.326C1362.97 349.316 1350.8 341.427 1335.95 341.719Z" fill="#EADDFF"/>
<path d="M1869.21 267.795C1865.92 252.502 1851.5 251.795 1836.36 240.509C1814.16 223.942 1798.98 231.109 1798.04 244.281C1797.09 257.438 1812.56 265.285 1814.85 278.886C1814.86 278.928 1814.86 278.969 1814.88 279.011C1814.89 279.053 1814.89 279.094 1814.9 279.136C1817.71 292.626 1806.26 306.019 1811.92 317.831C1817.57 329.63 1834.22 330.226 1848.74 306.088C1858.63 289.631 1871.72 283.24 1869.21 267.795Z" fill="#EADDFF"/>
<path d="M1873.09 228.461C1863.52 239.275 1850.37 242.797 1843.72 236.35C1837.05 229.903 1839.41 215.914 1848.98 205.1C1858.55 194.299 1871.7 190.778 1878.36 197.225C1885.02 203.671 1882.67 217.661 1873.09 228.461Z" fill="#EADDFF"/>
<path d="M1887.09 302.622C1874.31 296.425 1860.86 298.393 1857.06 307.003C1853.24 315.613 1860.5 327.62 1873.27 333.817C1886.05 340 1899.49 338.046 1903.3 329.422C1907.12 320.812 1899.86 308.819 1887.09 302.622Z" fill="#EADDFF"/>
<path d="M1907.44 255.76C1893.6 261.389 1879.58 258.394 1876.1 249.064C1872.63 239.733 1881.03 227.601 1894.87 221.973C1908.71 216.344 1922.74 219.338 1926.21 228.669C1929.68 238 1921.28 250.131 1907.44 255.76Z" fill="#EADDFF"/>
<path d="M1908.95 263.719C1894.1 264.01 1882.21 272.356 1882.39 282.366C1882.57 292.376 1894.75 300.265 1909.59 299.974C1924.43 299.683 1936.32 291.337 1936.15 281.326C1935.97 271.316 1923.8 263.427 1908.95 263.719Z" fill="#EADDFF"/>
<path d="M1499.21 144.795C1495.92 129.502 1481.5 128.795 1466.36 117.509C1444.16 100.942 1428.98 108.109 1428.04 121.281C1427.09 134.438 1442.56 142.285 1444.85 155.886C1444.86 155.928 1444.86 155.969 1444.88 156.011C1444.89 156.053 1444.89 156.094 1444.9 156.136C1447.71 169.626 1436.26 183.019 1441.92 194.831C1447.57 206.63 1464.22 207.226 1478.74 183.088C1488.63 166.631 1501.72 160.24 1499.21 144.795Z" fill="#EADDFF"/>
<path d="M1503.1 105.461C1493.52 116.275 1480.38 119.797 1473.72 113.35C1467.05 106.903 1469.41 92.9139 1478.98 82.0996C1488.55 71.2993 1501.7 67.7776 1508.36 74.2245C1515.03 80.6715 1512.67 94.6608 1503.1 105.461Z" fill="#EADDFF"/>
<path d="M1517.09 179.622C1504.31 173.425 1490.86 175.393 1487.06 184.003C1483.24 192.613 1490.5 204.62 1503.27 210.817C1516.05 217 1529.49 215.046 1533.3 206.422C1537.12 197.812 1529.86 185.819 1517.09 179.622Z" fill="#EADDFF"/>
<path d="M1537.44 132.76C1523.6 138.389 1509.58 135.395 1506.1 126.064C1502.63 116.733 1511.04 104.602 1524.87 98.9726C1538.71 93.3437 1552.74 96.3385 1556.21 105.669C1559.68 115 1551.28 127.131 1537.44 132.76Z" fill="#EADDFF"/>
<path d="M1538.95 140.719C1524.11 141.01 1512.22 149.356 1512.39 159.366C1512.57 169.376 1524.75 177.265 1539.59 176.974C1554.43 176.683 1566.32 168.337 1566.15 158.326C1565.97 148.316 1553.8 140.427 1538.95 140.719Z" fill="#EADDFF"/>
<path d="M2059.21 73.7946C2055.92 58.5022 2041.5 57.7951 2026.36 46.5095C2004.16 29.9415 1988.98 37.1094 1988.04 50.2806C1987.09 63.438 2002.56 71.2852 2004.85 84.8862C2004.86 84.9278 2004.86 84.9694 2004.88 85.011C2004.89 85.0526 2004.89 85.0942 2004.9 85.1358C2007.71 98.6259 1996.26 112.019 2001.92 123.831C2007.57 135.63 2024.22 136.226 2038.74 112.088C2048.63 95.6311 2061.72 89.2396 2059.21 73.7946Z" fill="#EADDFF"/>
<path d="M2063.1 34.4612C2053.52 45.2754 2040.38 48.7969 2033.72 42.3499C2027.05 35.903 2029.41 21.9139 2038.98 11.0996C2048.55 0.299252 2061.7 -3.22242 2068.36 3.22454C2075.03 9.67149 2072.67 23.6608 2063.1 34.4612Z" fill="#EADDFF"/>
<path d="M2077.09 108.622C2064.31 102.425 2050.86 104.394 2047.06 113.003C2043.24 121.613 2050.5 133.62 2063.27 139.817C2076.05 146.001 2089.49 144.046 2093.3 135.422C2097.12 126.812 2089.86 114.82 2077.09 108.622Z" fill="#EADDFF"/>
<path d="M2097.44 61.7602C2083.6 67.3892 2069.58 64.3945 2066.1 55.0638C2062.63 45.733 2071.04 33.6016 2084.87 27.9726C2098.71 22.3437 2112.74 25.3385 2116.21 34.6693C2119.68 44 2111.28 56.1313 2097.44 61.7602Z" fill="#EADDFF"/>
<path d="M2098.95 69.7186C2084.11 70.0098 2072.22 78.3562 2072.39 88.3663C2072.57 98.3764 2084.75 106.265 2099.59 105.974C2114.43 105.683 2126.32 97.3365 2126.15 87.3264C2125.97 77.3163 2113.8 69.4275 2098.95 69.7186Z" fill="#EADDFF"/>
</svg>
