<?xml version="1.0" encoding="UTF-8" standalone="no"?>
<!-- Created with Inkscape (http://www.inkscape.org/) -->

<svg
   version="1.1"
   id="svg2"
   width="2829.3333"
   height="2829.3333"
   viewBox="0 0 2829.3333 2829.3333"
   sodipodi:docname="SL-011023-55240-17.eps"
   xmlns:inkscape="http://www.inkscape.org/namespaces/inkscape"
   xmlns:sodipodi="http://sodipodi.sourceforge.net/DTD/sodipodi-0.dtd"
   xmlns="http://www.w3.org/2000/svg"
   xmlns:svg="http://www.w3.org/2000/svg">
  <defs
     id="defs6" />
  <sodipodi:namedview
     id="namedview4"
     pagecolor="#ffffff"
     bordercolor="#000000"
     borderopacity="0.25"
     inkscape:showpageshadow="2"
     inkscape:pageopacity="0.0"
     inkscape:pagecheckerboard="0"
     inkscape:deskcolor="#d1d1d1" />
  <g
     id="g8"
     inkscape:groupmode="layer"
     inkscape:label="ink_ext_XXXXXX"
     transform="matrix(1.3333333,0,0,-1.3333333,0,2829.3333)">
    <g
       id="g10"
       transform="scale(0.1)">
      <path
         d="M 21213.2,6.80078 H 0 V 21220 H 21213.2 V 6.80078"
         style="fill:#ffffff;fill-opacity:1;fill-rule:nonzero;stroke:none"
         id="path12" />
      <path
         d="m 17629.6,8343.9 c -135.3,40.4 -207.5,-75 -366.1,-149.6 -232.8,-109.4 -246.5,-265.9 -147.3,-331.8 99.1,-65.9 232.1,26.6 349.6,-14.5 0.4,-0.1 0.8,-0.2 1.1,-0.4 0.4,-0.1 0.8,-0.2 1.1,-0.3 119.1,-36.4 171.5,-189.8 290.4,-195.3 118.9,-5.6 200.5,128.6 77.7,354.6 -83.7,154 -73.5,289.7 -206.5,337.3"
         style="fill:#ebb370;fill-opacity:1;fill-rule:nonzero;stroke:none"
         id="path14" />
      <path
         d="m 17338.4,8549.5 c 40.8,-126.4 7.8,-250.1 -73.7,-276.4 -81.4,-26.3 -180.5,54.9 -221.3,181.2 -40.7,126.4 -7.7,250.1 73.7,276.4 81.5,26.2 180.6,-54.9 221.3,-181.2"
         style="fill:#ebb370;fill-opacity:1;fill-rule:nonzero;stroke:none"
         id="path16" />
      <path
         d="m 17986,8337.2 c -107.7,-77.7 -154.3,-197 -104.2,-266.4 50,-69.4 177.9,-62.6 285.6,15 107.6,77.7 154.3,197 104.2,266.4 -50.1,69.4 -178,62.7 -285.6,-15"
         style="fill:#ebb370;fill-opacity:1;fill-rule:nonzero;stroke:none"
         id="path18" />
      <path
         d="m 17711.6,8711.4 c -19.6,-138.6 -108,-240.8 -197.3,-228.1 -89.4,12.6 -146,135.2 -126.3,273.9 19.6,138.6 107.9,240.7 197.3,228.1 89.3,-12.7 145.9,-135.3 126.3,-273.9"
         style="fill:#ebb370;fill-opacity:1;fill-rule:nonzero;stroke:none"
         id="path20" />
      <path
         d="m 17781.1,8688.6 c -66.3,-123.3 -55.5,-258 24,-300.7 79.5,-42.7 197.7,22.7 263.9,146 66.3,123.3 55.6,257.9 -23.9,300.7 -79.6,42.7 -197.7,-22.7 -264,-146"
         style="fill:#ebb370;fill-opacity:1;fill-rule:nonzero;stroke:none"
         id="path22" />
      <path
         d="m 16565.6,6283.2 c -116.2,80.3 -220.5,-7.1 -394.5,-29 -255.1,-32.2 -316.5,-176.8 -242.6,-270.1 73.9,-93.3 229,-46.4 328.1,-121.8 0.3,-0.3 0.6,-0.5 0.9,-0.7 0.3,-0.2 0.7,-0.5 1,-0.7 101.9,-71.4 104.4,-233.5 215.8,-275.5 111.3,-42.1 230.4,60.4 183.5,313.2 -32,172.4 19.6,298.3 -92.2,384.6"
         style="fill:#ffe8c8;fill-opacity:1;fill-rule:nonzero;stroke:none"
         id="path24" />
      <path
         d="m 16352.2,6568.7 c -0.3,-132.7 -69.9,-240.2 -155.5,-240 -85.6,0.2 -154.7,107.9 -154.5,240.7 0.3,132.8 69.9,240.2 155.5,240.1 85.6,-0.2 154.8,-108 154.5,-240.8"
         style="fill:#ffe8c8;fill-opacity:1;fill-rule:nonzero;stroke:none"
         id="path26" />
      <path
         d="m 16902.5,6166.7 c -126.4,-40.6 -207.7,-139.6 -181.5,-221.1 26.2,-81.4 149.9,-114.6 276.3,-73.9 126.4,40.6 207.6,139.6 181.4,221.1 -26.2,81.4 -149.9,114.6 -276.2,73.9"
         style="fill:#ffe8c8;fill-opacity:1;fill-rule:nonzero;stroke:none"
         id="path28" />
      <path
         d="m 16757.1,6607.4 c -61.5,-125.8 -177.1,-195.6 -258.1,-155.9 -81.1,39.6 -97,173.7 -35.5,299.5 61.5,125.8 177.1,195.6 258.1,156 81.1,-39.7 97,-173.8 35.5,-299.6"
         style="fill:#ffe8c8;fill-opacity:1;fill-rule:nonzero;stroke:none"
         id="path30" />
      <path
         d="m 16816.2,6564.3 c -101.1,-96.8 -132.5,-228.2 -70.1,-293.4 62.4,-65.2 195,-39.6 296.1,57.3 101.2,96.8 132.6,228.1 70.1,293.3 -62.4,65.2 -195,39.6 -296.1,-57.2"
         style="fill:#ffe8c8;fill-opacity:1;fill-rule:nonzero;stroke:none"
         id="path32" />
      <path
         d="m 14935,4655.4 c -85.7,112.3 -211.9,61.4 -384.1,94.3 -252.6,48.2 -355.6,-70.3 -314.2,-181.9 41.5,-111.6 203.5,-114.9 274.4,-217.2 0.2,-0.4 0.4,-0.7 0.7,-1 0.2,-0.3 0.4,-0.6 0.7,-0.9 74.8,-99.5 27.2,-254.4 120.1,-328.7 92.8,-74.4 237.8,-13.8 271.3,241.2 22.8,173.8 110.8,277.6 31.1,394.2"
         style="fill:#cd7f2e;fill-opacity:1;fill-rule:nonzero;stroke:none"
         id="path34" />
      <path
         d="m 14820.3,4992.9 c -41.3,-126.2 -140.7,-206.9 -222,-180.2 -81.4,26.6 -113.8,150.4 -72.6,276.6 41.3,126.2 140.7,206.9 222.1,180.3 81.3,-26.6 113.8,-150.5 72.5,-276.7"
         style="fill:#cd7f2e;fill-opacity:1;fill-rule:nonzero;stroke:none"
         id="path36" />
      <path
         d="m 15219.4,4440.5 c -132.7,0.5 -240.6,-68.6 -240.9,-154.2 -0.2,-85.6 107.2,-155.3 239.9,-155.7 132.8,-0.4 240.6,68.6 240.9,154.2 0.3,85.6 -107.1,155.3 -239.9,155.7"
         style="fill:#cd7f2e;fill-opacity:1;fill-rule:nonzero;stroke:none"
         id="path38" />
      <path
         d="m 15217.4,4904.6 c -97.4,-100.7 -228.9,-131.3 -293.7,-68.6 -64.9,62.8 -38.6,195.2 58.8,295.8 97.3,100.7 228.8,131.4 293.7,68.6 64.9,-62.8 38.5,-195.2 -58.8,-295.8"
         style="fill:#cd7f2e;fill-opacity:1;fill-rule:nonzero;stroke:none"
         id="path40" />
      <path
         d="m 15260.2,4845.3 c -126.1,-60.9 -196.5,-176.1 -157.3,-257.4 39.2,-81.3 173.2,-97.9 299.3,-37 126.2,60.8 196.6,176 157.4,257.3 -39.2,81.3 -173.3,97.9 -299.4,37.1"
         style="fill:#cd7f2e;fill-opacity:1;fill-rule:nonzero;stroke:none"
         id="path42" />
      <path
         d="m 12889.2,3626.4 c -46.8,133.3 -182.6,123.8 -336.2,208.3 -225.3,124 -360,43.1 -355,-75.8 4.9,-118.9 158,-172.2 193.8,-291.4 0.1,-0.4 0.2,-0.8 0.3,-1.1 0.2,-0.4 0.3,-0.8 0.4,-1.1 40.5,-117.8 -52.7,-250.3 12.7,-349.8 65.3,-99.4 221.9,-86.6 332.5,145.6 75.5,158.2 191.2,229.8 151.5,365.3"
         style="fill:#727f45;fill-opacity:1;fill-rule:nonzero;stroke:none"
         id="path44" />
      <path
         d="m 12884.4,3982.8 c -78.3,-107.2 -197.8,-153.2 -266.9,-102.8 -69.1,50.5 -61.7,178.3 16.5,285.5 78.3,107.3 197.8,153.3 266.9,102.9 69.1,-50.5 61.8,-178.3 -16.5,-285.6"
         style="fill:#727f45;fill-opacity:1;fill-rule:nonzero;stroke:none"
         id="path46" />
      <path
         d="m 13093.3,3334.2 c -126.2,41.4 -250.1,9 -276.8,-72.3 -26.7,-81.3 53.9,-180.8 180.1,-222.2 126.1,-41.4 250,-9.1 276.7,72.2 26.7,81.3 -53.9,180.8 -180,222.3"
         style="fill:#727f45;fill-opacity:1;fill-rule:nonzero;stroke:none"
         id="path48" />
      <path
         d="m 13234.7,3776.1 c -123.6,-65.6 -258.2,-54.2 -300.5,25.6 -42.3,79.7 23.7,197.5 147.4,263.2 123.6,65.6 258.2,54.1 300.5,-25.6 42.3,-79.7 -23.7,-197.6 -147.4,-263.2"
         style="fill:#727f45;fill-opacity:1;fill-rule:nonzero;stroke:none"
         id="path50" />
      <path
         d="m 13257.2,3706.5 c -138.8,-18.9 -241.4,-106.7 -229.2,-196.2 12.2,-89.4 134.5,-146.6 273.2,-127.7 138.8,18.9 241.4,106.7 229.2,196.1 -12.2,89.5 -134.5,146.7 -273.2,127.8"
         style="fill:#727f45;fill-opacity:1;fill-rule:nonzero;stroke:none"
         id="path52" />
      <path
         d="m 10619.2,3247.9 c -3.3,141.2 -135.4,174.2 -255.4,302 -176,187.5 -329,152.2 -361.1,37.6 -31.99,-114.6 97.1,-212.6 94.3,-337.1 0,-0.3 0,-0.7 0,-1.1 0,-0.4 0,-0.8 0,-1.2 2.1,-124.5 -127.46,-221.7 -96,-336.5 31.4,-114.8 184.3,-151 361.2,35.6 120.7,127.2 252.9,159.5 257,300.7"
         style="fill:#32431c;fill-opacity:1;fill-rule:nonzero;stroke:none"
         id="path54" />
      <path
         d="m 10724.8,3588.4 c -107.6,-77.8 -235.5,-84.7 -285.6,-15.4 -50.2,69.4 -3.7,188.7 103.9,266.5 107.6,77.8 235.4,84.7 285.6,15.3 50.2,-69.3 3.6,-188.6 -103.9,-266.4"
         style="fill:#32431c;fill-opacity:1;fill-rule:nonzero;stroke:none"
         id="path56" />
      <path
         d="m 10723,2906.9 c -107.2,78.4 -235,85.9 -285.6,16.8 -50.5,-69.1 -4.6,-188.6 102.6,-267 107.2,-78.4 235,-85.9 285.5,-16.8 50.5,69.1 4.6,188.6 -102.5,267"
         style="fill:#32431c;fill-opacity:1;fill-rule:nonzero;stroke:none"
         id="path58" />
      <path
         d="m 10994.1,3283.5 c -137.9,-24.2 -262.4,28.3 -278,117.2 -15.5,88.9 83.6,180.6 221.5,204.7 137.9,24.2 262.4,-28.2 277.9,-117.1 15.6,-88.9 -83.5,-180.6 -221.4,-204.8"
         style="fill:#32431c;fill-opacity:1;fill-rule:nonzero;stroke:none"
         id="path60" />
      <path
         d="m 10993.9,3210.3 c -137.8,24.9 -262.5,-26.9 -278.6,-115.7 -16,-88.8 82.7,-181 220.4,-205.9 137.8,-24.9 262.5,26.9 278.6,115.7 16,88.8 -82.6,181 -220.4,205.9"
         style="fill:#32431c;fill-opacity:1;fill-rule:nonzero;stroke:none"
         id="path62" />
      <path
         d="m 8337.07,3590.4 c 40.44,135.3 -74.97,207.5 -149.55,366.1 -109.42,232.8 -265.94,246.5 -331.81,147.3 -65.88,-99.1 26.62,-232.1 -14.48,-349.6 -0.12,-0.4 -0.26,-0.8 -0.38,-1.1 -0.11,-0.4 -0.22,-0.8 -0.34,-1.1 -36.45,-119.1 -189.77,-171.5 -195.35,-290.4 -5.59,-118.9 128.64,-200.5 354.61,-77.7 154.03,83.7 289.78,73.5 337.3,206.5"
         style="fill:#ebb370;fill-opacity:1;fill-rule:nonzero;stroke:none"
         id="path64" />
      <path
         d="m 8542.67,3881.6 c -126.35,-40.8 -250.08,-7.8 -276.36,73.7 -26.28,81.4 54.85,180.5 181.2,221.3 126.35,40.7 250.08,7.7 276.35,-73.7 26.28,-81.5 -54.84,-180.6 -181.19,-221.3"
         style="fill:#ebb370;fill-opacity:1;fill-rule:nonzero;stroke:none"
         id="path66" />
      <path
         d="m 8330.37,3234 c -77.7,107.7 -196.94,154.3 -266.34,104.2 -69.4,-50 -62.68,-177.9 15.02,-285.6 77.69,-107.6 196.94,-154.3 266.34,-104.2 69.4,50.1 62.68,178 -15.02,285.6"
         style="fill:#ebb370;fill-opacity:1;fill-rule:nonzero;stroke:none"
         id="path68" />
      <path
         d="m 8704.59,3508.4 c -138.63,19.6 -240.76,108 -228.11,197.3 12.64,89.4 135.27,146 273.9,126.3 138.63,-19.6 240.76,-107.9 228.12,-197.3 -12.65,-89.4 -135.28,-145.9 -273.91,-126.3"
         style="fill:#ebb370;fill-opacity:1;fill-rule:nonzero;stroke:none"
         id="path70" />
      <path
         d="m 8681.8,3438.9 c -123.33,66.3 -257.95,55.5 -300.67,-24 -42.71,-79.5 22.64,-197.7 145.97,-263.9 123.34,-66.3 257.94,-55.6 300.66,23.9 42.73,79.6 -22.62,197.7 -145.96,264"
         style="fill:#ebb370;fill-opacity:1;fill-rule:nonzero;stroke:none"
         id="path72" />
      <path
         d="m 6276.44,4654.4 c 80.27,116.2 -7.18,220.5 -29.09,394.5 -32.15,255.1 -176.77,316.5 -270.05,242.6 -93.28,-73.9 -46.43,-229 -121.82,-328.1 -0.24,-0.3 -0.47,-0.6 -0.71,-0.9 -0.22,-0.3 -0.44,-0.7 -0.66,-1 -71.45,-101.9 -233.48,-104.4 -275.52,-215.8 -42.05,-111.3 60.38,-230.4 313.24,-183.5 172.35,32 298.31,-19.6 384.61,92.2"
         style="fill:#ffe8c8;fill-opacity:1;fill-rule:nonzero;stroke:none"
         id="path74" />
      <path
         d="m 6561.95,4867.8 c -132.76,0.3 -240.24,69.9 -240.06,155.5 0.18,85.6 107.95,154.7 240.71,154.5 132.76,-0.3 240.24,-69.9 240.06,-155.5 -0.18,-85.6 -107.95,-154.8 -240.71,-154.5"
         style="fill:#ffe8c8;fill-opacity:1;fill-rule:nonzero;stroke:none"
         id="path76" />
      <path
         d="m 6159.94,4317.5 c -40.63,126.4 -139.62,207.7 -221.1,181.5 -81.48,-26.2 -114.6,-149.9 -73.97,-276.3 40.62,-126.4 139.61,-207.6 221.09,-181.4 81.48,26.2 114.6,149.9 73.98,276.2"
         style="fill:#ffe8c8;fill-opacity:1;fill-rule:nonzero;stroke:none"
         id="path78" />
      <path
         d="m 6600.63,4462.9 c -125.78,61.5 -195.61,177 -155.97,258.1 39.65,81.1 173.75,97 299.53,35.5 125.78,-61.5 195.61,-177.1 155.97,-258.1 -39.64,-81.1 -173.75,-97 -299.53,-35.5"
         style="fill:#ffe8c8;fill-opacity:1;fill-rule:nonzero;stroke:none"
         id="path80" />
      <path
         d="m 6557.48,4403.8 c -96.82,101.1 -228.17,132.5 -293.36,70.1 -65.2,-62.4 -39.57,-195 57.25,-296.1 96.82,-101.2 228.17,-132.6 293.36,-70.1 65.2,62.4 39.57,195 -57.25,296.1"
         style="fill:#ffe8c8;fill-opacity:1;fill-rule:nonzero;stroke:none"
         id="path82" />
      <path
         d="m 4648.64,6285 c 112.25,85.7 61.32,211.9 94.22,384.1 48.27,252.6 -70.31,355.6 -181.86,314.2 -111.55,-41.5 -114.93,-203.5 -217.24,-274.4 -0.32,-0.2 -0.64,-0.4 -0.95,-0.7 -0.31,-0.2 -0.62,-0.4 -0.93,-0.7 -99.45,-74.8 -254.33,-27.2 -328.72,-120.1 -74.4,-92.8 -13.79,-237.8 241.2,-271.3 173.8,-22.8 277.66,-110.8 394.28,-31.1"
         style="fill:#cd7f2e;fill-opacity:1;fill-rule:nonzero;stroke:none"
         id="path84" />
      <path
         d="m 4986.12,6399.7 c -126.18,41.3 -206.88,140.7 -180.26,222 26.62,81.4 150.48,113.8 276.65,72.6 126.19,-41.3 206.89,-140.7 180.27,-222.1 -26.62,-81.3 -150.48,-113.8 -276.66,-72.5"
         style="fill:#cd7f2e;fill-opacity:1;fill-rule:nonzero;stroke:none"
         id="path86" />
      <path
         d="m 4433.74,6000.6 c 0.42,132.7 -68.62,240.6 -154.21,240.8 -85.59,0.3 -155.31,-107.1 -155.73,-239.8 -0.42,-132.8 68.62,-240.6 154.21,-240.9 85.58,-0.3 155.31,107.1 155.73,239.9"
         style="fill:#cd7f2e;fill-opacity:1;fill-rule:nonzero;stroke:none"
         id="path88" />
      <path
         d="m 4897.78,6002.6 c -100.63,97.4 -131.32,228.9 -68.56,293.7 62.76,64.9 195.2,38.6 295.82,-58.8 100.63,-97.3 131.33,-228.8 68.56,-293.7 -62.75,-64.9 -195.2,-38.5 -295.82,58.8"
         style="fill:#cd7f2e;fill-opacity:1;fill-rule:nonzero;stroke:none"
         id="path90" />
      <path
         d="m 4838.47,5959.8 c -60.82,126.1 -176.04,196.5 -257.33,157.3 -81.3,-39.2 -97.89,-173.2 -37.06,-299.4 60.83,-126.1 176.04,-196.5 257.34,-157.3 81.29,39.2 97.89,173.3 37.05,299.4"
         style="fill:#cd7f2e;fill-opacity:1;fill-rule:nonzero;stroke:none"
         id="path92" />
      <path
         d="m 3619.62,8330.8 c 133.25,46.8 123.81,182.6 208.32,336.2 123.96,225.3 43.04,360 -75.87,355 -118.9,-4.9 -172.18,-158 -291.4,-193.8 -0.37,-0.1 -0.74,-0.2 -1.11,-0.3 -0.36,-0.2 -0.73,-0.3 -1.09,-0.4 -117.73,-40.5 -250.3,52.7 -349.76,-12.7 -99.45,-65.3 -86.59,-221.9 145.56,-332.5 158.24,-75.5 229.82,-191.2 365.35,-151.5"
         style="fill:#727f45;fill-opacity:1;fill-rule:nonzero;stroke:none"
         id="path94" />
      <path
         d="m 3976.04,8335.6 c -107.24,78.3 -153.28,197.8 -102.83,266.9 50.46,69.1 178.29,61.7 285.54,-16.5 107.24,-78.3 153.28,-197.8 102.82,-266.9 -50.45,-69.1 -178.29,-61.8 -285.53,16.5"
         style="fill:#727f45;fill-opacity:1;fill-rule:nonzero;stroke:none"
         id="path96" />
      <path
         d="m 3327.36,8126.7 c 41.42,126.2 9.09,250.1 -72.23,276.8 -81.31,26.7 -180.81,-53.9 -222.24,-180.1 -41.42,-126.1 -9.08,-250 72.23,-276.7 81.32,-26.7 180.81,53.9 222.24,180"
         style="fill:#727f45;fill-opacity:1;fill-rule:nonzero;stroke:none"
         id="path98" />
      <path
         d="m 3769.31,7985.3 c -65.61,123.6 -54.16,258.2 25.57,300.5 79.73,42.3 197.56,-23.7 263.18,-147.4 65.61,-123.6 54.16,-258.2 -25.57,-300.5 -79.73,-42.3 -197.56,23.7 -263.18,147.4"
         style="fill:#727f45;fill-opacity:1;fill-rule:nonzero;stroke:none"
         id="path100" />
      <path
         d="m 3699.68,7962.8 c -18.89,138.8 -106.69,241.4 -196.14,229.2 -89.43,-12.2 -146.62,-134.5 -127.73,-273.2 18.88,-138.8 106.69,-241.4 196.13,-229.2 89.43,12.2 146.62,134.5 127.74,273.2"
         style="fill:#727f45;fill-opacity:1;fill-rule:nonzero;stroke:none"
         id="path102" />
      <path
         d="m 3241.11,10600.8 c 141.19,3.3 174.18,135.4 302,255.4 187.53,176 152.18,329 37.56,361.1 -114.62,32 -212.57,-97.1 -337.03,-94.3 -0.39,0 -0.77,0 -1.16,0 -0.39,0 -0.77,0 -1.16,0 -124.47,-2.1 -221.75,127.5 -336.53,96 -114.79,-31.4 -150.95,-184.3 35.65,-361.2 127.2,-120.7 159.49,-252.9 300.67,-257"
         style="fill:#32431c;fill-opacity:1;fill-rule:nonzero;stroke:none"
         id="path104" />
      <path
         d="m 3581.57,10495.2 c -77.81,107.6 -84.67,235.5 -15.32,285.6 69.35,50.2 188.64,3.7 266.45,-103.9 77.81,-107.6 84.67,-235.4 15.32,-285.6 -69.34,-50.2 -188.64,-3.6 -266.45,103.9"
         style="fill:#32431c;fill-opacity:1;fill-rule:nonzero;stroke:none"
         id="path106" />
      <path
         d="m 2900.09,10497 c 78.38,107.2 85.9,235 16.82,285.5 -69.08,50.6 -188.62,4.7 -266.99,-102.5 -78.37,-107.2 -85.91,-235 -16.82,-285.5 69.08,-50.5 188.62,-4.6 266.99,102.5"
         style="fill:#32431c;fill-opacity:1;fill-rule:nonzero;stroke:none"
         id="path108" />
      <path
         d="m 3276.7,10225.9 c -24.19,137.9 28.28,262.4 117.18,277.9 88.9,15.6 180.57,-83.5 204.76,-221.4 24.18,-137.9 -28.28,-262.4 -117.18,-277.9 -88.9,-15.6 -180.57,83.5 -204.76,221.4"
         style="fill:#32431c;fill-opacity:1;fill-rule:nonzero;stroke:none"
         id="path110" />
      <path
         d="m 3203.54,10226.1 c 24.91,137.8 -26.9,262.5 -115.72,278.6 -88.82,16 -181.01,-82.7 -205.93,-220.4 -24.9,-137.8 26.9,-262.5 115.73,-278.6 88.81,-16 181.01,82.6 205.92,220.4"
         style="fill:#32431c;fill-opacity:1;fill-rule:nonzero;stroke:none"
         id="path112" />
      <path
         d="m 3583.6,12882.9 c 135.32,-40.4 207.51,75 366.14,149.6 232.75,109.4 246.42,265.9 147.31,331.8 -99.11,65.9 -232.17,-26.6 -349.68,14.5 -0.36,0.1 -0.73,0.2 -1.09,0.4 -0.37,0.1 -0.74,0.2 -1.11,0.3 -119.03,36.4 -171.5,189.8 -290.37,195.3 -118.88,5.6 -200.52,-128.6 -77.73,-354.6 83.69,-154 73.54,-289.8 206.53,-337.3"
         style="fill:#ebb370;fill-opacity:1;fill-rule:nonzero;stroke:none"
         id="path114" />
      <path
         d="m 3874.79,12677.3 c -40.76,126.4 -7.77,250.1 73.68,276.4 81.46,26.3 180.53,-54.9 221.29,-181.2 40.76,-126.4 7.77,-250.1 -73.68,-276.4 -81.46,-26.2 -180.53,54.9 -221.29,181.2"
         style="fill:#ebb370;fill-opacity:1;fill-rule:nonzero;stroke:none"
         id="path116" />
      <path
         d="m 3227.21,12889.6 c 107.66,77.7 154.32,197 104.24,266.4 -50.09,69.4 -177.97,62.7 -285.62,-15.1 -107.65,-77.6 -154.32,-196.9 -104.23,-266.3 50.09,-69.4 177.96,-62.7 285.61,15"
         style="fill:#ebb370;fill-opacity:1;fill-rule:nonzero;stroke:none"
         id="path118" />
      <path
         d="m 3501.61,12515.4 c 19.62,138.6 107.96,240.8 197.34,228.1 89.37,-12.6 145.91,-135.3 126.3,-273.9 -19.62,-138.6 -107.97,-240.7 -197.34,-228.1 -89.36,12.6 -145.91,135.3 -126.3,273.9"
         style="fill:#ebb370;fill-opacity:1;fill-rule:nonzero;stroke:none"
         id="path120" />
      <path
         d="m 3432.1,12538.2 c 66.26,123.3 55.53,258 -23.99,300.7 -79.51,42.7 -197.68,-22.7 -263.94,-146 -66.27,-123.3 -55.54,-258 23.98,-300.7 79.51,-42.7 197.68,22.7 263.95,146"
         style="fill:#ebb370;fill-opacity:1;fill-rule:nonzero;stroke:none"
         id="path122" />
      <path
         d="m 4647.62,14943.6 c 116.2,-80.3 220.52,7.1 394.43,29.1 255.17,32.1 316.54,176.7 242.64,270 -73.91,93.3 -229.03,46.4 -328.09,121.8 -0.31,0.3 -0.62,0.5 -0.92,0.7 -0.32,0.2 -0.64,0.5 -0.95,0.7 -101.94,71.4 -104.46,233.5 -215.8,275.5 -111.34,42.1 -230.45,-60.4 -183.51,-313.2 31.99,-172.4 -19.6,-298.3 92.2,-384.6"
         style="fill:#ffe8c8;fill-opacity:1;fill-rule:nonzero;stroke:none"
         id="path124" />
      <path
         d="m 4861.02,14658.1 c 0.28,132.7 69.89,240.2 155.48,240 85.58,-0.2 154.74,-107.9 154.46,-240.7 -0.28,-132.8 -69.89,-240.2 -155.47,-240.1 -85.59,0.2 -154.75,108 -154.47,240.8"
         style="fill:#ffe8c8;fill-opacity:1;fill-rule:nonzero;stroke:none"
         id="path126" />
      <path
         d="m 4310.74,15060.1 c 126.4,40.6 207.63,139.6 181.44,221.1 -26.2,81.4 -149.89,114.6 -276.28,73.9 -126.39,-40.6 -207.62,-139.6 -181.43,-221.1 26.19,-81.4 149.88,-114.6 276.27,-73.9"
         style="fill:#ffe8c8;fill-opacity:1;fill-rule:nonzero;stroke:none"
         id="path128" />
      <path
         d="m 4456.07,14619.4 c 61.5,125.8 177.08,195.6 258.17,155.9 81.09,-39.6 96.97,-173.7 35.48,-299.5 -61.5,-125.8 -177.08,-195.6 -258.17,-156 -81.08,39.7 -96.97,173.8 -35.48,299.6"
         style="fill:#ffe8c8;fill-opacity:1;fill-rule:nonzero;stroke:none"
         id="path130" />
      <path
         d="m 4397,14662.5 c 101.13,96.8 132.52,228.2 70.1,293.4 -62.41,65.2 -195,39.5 -296.14,-57.3 -101.13,-96.8 -132.51,-228.1 -70.09,-293.3 62.41,-65.2 195,-39.6 296.13,57.2"
         style="fill:#ffe8c8;fill-opacity:1;fill-rule:nonzero;stroke:none"
         id="path132" />
      <path
         d="m 6278.16,16571.4 c 85.71,-112.3 211.94,-61.4 384.12,-94.3 252.61,-48.2 355.67,70.3 314.21,181.9 -41.46,111.6 -203.47,114.9 -274.39,217.2 -0.22,0.4 -0.44,0.7 -0.66,1 -0.23,0.3 -0.46,0.6 -0.7,0.9 -74.87,99.5 -27.2,254.3 -120.09,328.7 -92.89,74.4 -237.83,13.8 -271.33,-241.2 -22.82,-173.8 -110.82,-277.6 -31.16,-394.2"
         style="fill:#cd7f2e;fill-opacity:1;fill-rule:nonzero;stroke:none"
         id="path134" />
      <path
         d="m 6392.89,16233.9 c 41.29,126.2 140.7,206.9 222.05,180.2 81.34,-26.6 113.81,-150.4 72.52,-276.6 -41.29,-126.2 -140.71,-206.9 -222.05,-180.3 -81.34,26.6 -113.81,150.5 -72.52,276.7"
         style="fill:#cd7f2e;fill-opacity:1;fill-rule:nonzero;stroke:none"
         id="path136" />
      <path
         d="m 5993.78,16786.3 c 132.76,-0.5 240.6,68.6 240.87,154.2 0.27,85.6 -107.13,155.3 -239.9,155.7 -132.76,0.4 -240.6,-68.6 -240.87,-154.2 -0.27,-85.6 107.13,-155.3 239.9,-155.7"
         style="fill:#cd7f2e;fill-opacity:1;fill-rule:nonzero;stroke:none"
         id="path138" />
      <path
         d="m 5995.81,16322.2 c 97.35,100.7 228.86,131.3 293.72,68.6 64.87,-62.8 38.54,-195.2 -58.81,-295.9 -97.35,-100.6 -228.86,-131.3 -293.73,-68.5 -64.87,62.8 -38.53,195.2 58.82,295.8"
         style="fill:#cd7f2e;fill-opacity:1;fill-rule:nonzero;stroke:none"
         id="path140" />
      <path
         d="m 5952.96,16381.5 c 126.11,60.9 196.54,176.1 157.33,257.4 -39.22,81.3 -173.23,97.9 -299.34,37 -126.1,-60.8 -196.54,-176 -157.32,-257.3 39.21,-81.3 173.23,-97.9 299.33,-37.1"
         style="fill:#cd7f2e;fill-opacity:1;fill-rule:nonzero;stroke:none"
         id="path142" />
      <path
         d="m 8323.99,17600.4 c 46.82,-133.3 182.62,-123.8 336.2,-208.3 225.32,-124 359.98,-43.1 355.02,75.8 -4.95,118.9 -158,172.2 -193.82,291.4 -0.11,0.4 -0.23,0.8 -0.34,1.1 -0.12,0.4 -0.25,0.8 -0.37,1.1 -40.48,117.8 52.72,250.3 -12.63,349.8 -65.36,99.4 -221.94,86.6 -332.59,-145.6 -75.41,-158.2 -191.2,-229.8 -151.47,-365.3"
         style="fill:#727f45;fill-opacity:1;fill-rule:nonzero;stroke:none"
         id="path144" />
      <path
         d="m 8328.81,17243.9 c 78.26,107.3 197.75,153.3 266.88,102.9 69.14,-50.5 61.74,-178.3 -16.52,-285.5 -78.26,-107.3 -197.74,-153.3 -266.88,-102.9 -69.14,50.5 -61.74,178.3 16.52,285.5"
         style="fill:#727f45;fill-opacity:1;fill-rule:nonzero;stroke:none"
         id="path146" />
      <path
         d="m 8119.93,17892.6 c 126.13,-41.4 250.03,-9 276.73,72.3 26.71,81.3 -53.89,180.8 -180.03,222.2 -126.13,41.4 -250.03,9.1 -276.73,-72.2 -26.71,-81.3 53.89,-180.8 180.03,-222.3"
         style="fill:#727f45;fill-opacity:1;fill-rule:nonzero;stroke:none"
         id="path148" />
      <path
         d="m 7978.46,17450.7 c 123.69,65.6 258.24,54.2 300.54,-25.6 42.3,-79.7 -23.68,-197.5 -147.35,-263.2 -123.69,-65.6 -258.24,-54.1 -300.54,25.6 -42.3,79.7 23.68,197.6 147.35,263.2"
         style="fill:#727f45;fill-opacity:1;fill-rule:nonzero;stroke:none"
         id="path150" />
      <path
         d="m 7956.04,17520.3 c 138.73,18.9 241.32,106.7 229.15,196.1 -12.18,89.5 -134.51,146.7 -273.24,127.8 -138.72,-18.9 -241.32,-106.7 -229.15,-196.1 12.18,-89.5 134.51,-146.7 273.24,-127.8"
         style="fill:#727f45;fill-opacity:1;fill-rule:nonzero;stroke:none"
         id="path152" />
      <path
         d="m 10594,17978.9 c 3.3,-141.2 135.4,-174.2 255.4,-302 176,-187.5 329,-152.2 361.1,-37.6 32,114.6 -97.1,212.6 -94.3,337.1 0,0.3 0,0.7 0,1.1 0,0.4 0,0.8 0,1.2 -2.1,124.5 127.5,221.7 96,336.5 -31.4,114.8 -184.3,151 -361.2,-35.6 -120.7,-127.2 -252.9,-159.5 -257,-300.7"
         style="fill:#32431c;fill-opacity:1;fill-rule:nonzero;stroke:none"
         id="path154" />
      <path
         d="m 10488.4,17638.4 c 107.6,77.8 235.5,84.7 285.6,15.4 50.2,-69.4 3.7,-188.7 -103.9,-266.5 -107.6,-77.8 -235.4,-84.7 -285.6,-15.3 -50.2,69.3 -3.6,188.6 103.9,266.4"
         style="fill:#32431c;fill-opacity:1;fill-rule:nonzero;stroke:none"
         id="path156" />
      <path
         d="m 10490.2,18319.9 c 107.2,-78.4 235,-85.9 285.5,-16.8 50.6,69.1 4.7,188.6 -102.5,267 -107.2,78.3 -235,85.9 -285.5,16.8 -50.5,-69.1 -4.6,-188.6 102.5,-267"
         style="fill:#32431c;fill-opacity:1;fill-rule:nonzero;stroke:none"
         id="path158" />
      <path
         d="m 10219.1,17943.3 c 137.9,24.2 262.4,-28.3 278,-117.2 15.5,-88.9 -83.6,-180.6 -221.5,-204.7 -137.9,-24.2 -262.3,28.2 -277.94,117.1 -15.6,88.9 83.54,180.6 221.44,204.8"
         style="fill:#32431c;fill-opacity:1;fill-rule:nonzero;stroke:none"
         id="path160" />
      <path
         d="m 10219.3,18016.5 c 137.8,-24.9 262.5,26.9 278.6,115.7 16,88.8 -82.7,181 -220.4,205.9 -137.8,24.9 -262.5,-26.9 -278.57,-115.7 -16.06,-88.8 82.57,-181 220.37,-205.9"
         style="fill:#32431c;fill-opacity:1;fill-rule:nonzero;stroke:none"
         id="path162" />
      <path
         d="m 12876.1,17636.4 c -40.4,-135.3 75,-207.5 149.6,-366.1 109.4,-232.8 265.9,-246.5 331.8,-147.4 65.9,99.2 -26.6,232.2 14.5,349.7 0.1,0.4 0.2,0.8 0.4,1.1 0.1,0.4 0.2,0.8 0.3,1.1 36.4,119.1 189.8,171.5 195.3,290.4 5.6,118.9 -128.6,200.5 -354.6,77.7 -154,-83.7 -289.7,-73.5 -337.3,-206.5"
         style="fill:#ebb370;fill-opacity:1;fill-rule:nonzero;stroke:none"
         id="path164" />
      <path
         d="m 12670.5,17345.2 c 126.4,40.8 250.1,7.8 276.4,-73.7 26.3,-81.4 -54.9,-180.5 -181.2,-221.3 -126.4,-40.7 -250.1,-7.7 -276.4,73.7 -26.2,81.5 54.9,180.5 181.2,221.3"
         style="fill:#ebb370;fill-opacity:1;fill-rule:nonzero;stroke:none"
         id="path166" />
      <path
         d="m 12882.8,17992.8 c 77.7,-107.7 197,-154.3 266.4,-104.2 69.4,50 62.6,177.9 -15.1,285.6 -77.6,107.6 -196.9,154.3 -266.3,104.2 -69.4,-50.1 -62.7,-178 15,-285.6"
         style="fill:#ebb370;fill-opacity:1;fill-rule:nonzero;stroke:none"
         id="path168" />
      <path
         d="m 12508.6,17718.4 c 138.6,-19.6 240.8,-108 228.1,-197.3 -12.6,-89.4 -135.3,-146 -273.9,-126.3 -138.6,19.6 -240.7,107.9 -228.1,197.3 12.7,89.3 135.3,145.9 273.9,126.3"
         style="fill:#ebb370;fill-opacity:1;fill-rule:nonzero;stroke:none"
         id="path170" />
      <path
         d="m 12531.4,17787.9 c 123.3,-66.3 257.9,-55.5 300.7,24 42.7,79.5 -22.7,197.7 -146,263.9 -123.3,66.3 -257.9,55.6 -300.7,-23.9 -42.7,-79.6 22.7,-197.7 146,-264"
         style="fill:#ebb370;fill-opacity:1;fill-rule:nonzero;stroke:none"
         id="path172" />
      <path
         d="m 14936.8,16572.4 c -80.3,-116.2 7.1,-220.5 29,-394.5 32.2,-255.1 176.8,-316.5 270.1,-242.6 93.3,73.9 46.4,229 121.8,328.1 0.3,0.3 0.5,0.6 0.7,0.9 0.2,0.3 0.5,0.7 0.7,1 71.4,101.9 233.5,104.4 275.5,215.8 42.1,111.3 -60.4,230.4 -313.2,183.5 -172.4,-32 -298.3,19.6 -384.6,-92.2"
         style="fill:#ffe8c8;fill-opacity:1;fill-rule:nonzero;stroke:none"
         id="path174" />
      <path
         d="m 14651.2,16359 c 132.8,-0.3 240.3,-69.9 240.1,-155.5 -0.2,-85.6 -107.9,-154.7 -240.7,-154.5 -132.8,0.3 -240.2,69.9 -240.1,155.5 0.2,85.6 108,154.8 240.7,154.5"
         style="fill:#ffe8c8;fill-opacity:1;fill-rule:nonzero;stroke:none"
         id="path176" />
      <path
         d="m 15053.3,16909.3 c 40.6,-126.4 139.6,-207.7 221.1,-181.5 81.4,26.2 114.6,149.9 73.9,276.3 -40.6,126.4 -139.6,207.6 -221.1,181.4 -81.4,-26.2 -114.6,-149.9 -73.9,-276.2"
         style="fill:#ffe8c8;fill-opacity:1;fill-rule:nonzero;stroke:none"
         id="path178" />
      <path
         d="m 14612.6,16763.9 c 125.8,-61.5 195.6,-177.1 155.9,-258.1 -39.6,-81.1 -173.7,-97 -299.5,-35.5 -125.8,61.5 -195.6,177.1 -156,258.1 39.7,81.1 173.8,97 299.6,35.5"
         style="fill:#ffe8c8;fill-opacity:1;fill-rule:nonzero;stroke:none"
         id="path180" />
      <path
         d="m 14655.7,16823 c 96.8,-101.1 228.2,-132.5 293.4,-70.1 65.2,62.4 39.5,195 -57.3,296.1 -96.8,101.2 -228.1,132.6 -293.3,70.1 -65.2,-62.4 -39.6,-195 57.2,-296.1"
         style="fill:#ffe8c8;fill-opacity:1;fill-rule:nonzero;stroke:none"
         id="path182" />
      <path
         d="m 16564.6,14941.8 c -112.3,-85.7 -61.4,-211.9 -94.3,-384.1 -48.2,-252.6 70.3,-355.6 181.9,-314.2 111.5,41.5 114.9,203.5 217.2,274.4 0.4,0.2 0.7,0.4 1,0.7 0.3,0.2 0.6,0.4 0.9,0.7 99.5,74.8 254.4,27.1 328.7,120.1 74.4,92.8 13.8,237.8 -241.2,271.3 -173.8,22.8 -277.6,110.8 -394.2,31.1"
         style="fill:#cd7f2e;fill-opacity:1;fill-rule:nonzero;stroke:none"
         id="path184" />
      <path
         d="m 16227.1,14827.1 c 126.2,-41.3 206.9,-140.7 180.2,-222 -26.6,-81.4 -150.4,-113.8 -276.6,-72.6 -126.2,41.3 -206.9,140.7 -180.3,222.1 26.6,81.3 150.5,113.8 276.7,72.5"
         style="fill:#cd7f2e;fill-opacity:1;fill-rule:nonzero;stroke:none"
         id="path186" />
      <path
         d="m 16779.5,15226.2 c -0.5,-132.7 68.6,-240.6 154.2,-240.8 85.6,-0.3 155.3,107.1 155.7,239.8 0.4,132.8 -68.6,240.6 -154.2,240.9 -85.6,0.3 -155.3,-107.1 -155.7,-239.9"
         style="fill:#cd7f2e;fill-opacity:1;fill-rule:nonzero;stroke:none"
         id="path188" />
      <path
         d="m 16315.4,15224.2 c 100.7,-97.4 131.3,-228.9 68.6,-293.7 -62.8,-64.9 -195.2,-38.6 -295.8,58.8 -100.7,97.3 -131.4,228.8 -68.6,293.7 62.8,64.9 195.2,38.5 295.8,-58.8"
         style="fill:#cd7f2e;fill-opacity:1;fill-rule:nonzero;stroke:none"
         id="path190" />
      <path
         d="m 16374.7,15267 c 60.9,-126.1 176.1,-196.5 257.4,-157.3 81.3,39.2 97.8,173.2 37,299.4 -60.8,126.1 -176,196.5 -257.3,157.3 -81.3,-39.2 -97.9,-173.3 -37.1,-299.4"
         style="fill:#cd7f2e;fill-opacity:1;fill-rule:nonzero;stroke:none"
         id="path192" />
      <path
         d="m 17593.6,12896 c -133.3,-46.8 -123.8,-182.6 -208.3,-336.2 -124,-225.3 -43.1,-360 75.8,-355 118.9,4.9 172.2,158 291.4,193.8 0.4,0.1 0.8,0.2 1.1,0.3 0.4,0.2 0.8,0.3 1.1,0.4 117.8,40.5 250.3,-52.7 349.8,12.6 99.4,65.4 86.6,222 -145.6,332.6 -158.2,75.4 -229.8,191.2 -365.3,151.5"
         style="fill:#727f45;fill-opacity:1;fill-rule:nonzero;stroke:none"
         id="path194" />
      <path
         d="m 17237.2,12891.2 c 107.2,-78.3 153.2,-197.8 102.8,-266.9 -50.5,-69.1 -178.3,-61.7 -285.5,16.5 -107.3,78.3 -153.3,197.8 -102.9,266.9 50.5,69.1 178.3,61.7 285.6,-16.5"
         style="fill:#727f45;fill-opacity:1;fill-rule:nonzero;stroke:none"
         id="path196" />
      <path
         d="m 17885.8,13100.1 c -41.4,-126.2 -9,-250.1 72.3,-276.8 81.3,-26.7 180.8,53.9 222.2,180.1 41.4,126.1 9.1,250 -72.2,276.7 -81.3,26.7 -180.8,-53.9 -222.3,-180"
         style="fill:#727f45;fill-opacity:1;fill-rule:nonzero;stroke:none"
         id="path198" />
      <path
         d="m 17443.9,13241.5 c 65.6,-123.6 54.2,-258.2 -25.6,-300.5 -79.7,-42.3 -197.5,23.7 -263.2,147.4 -65.6,123.6 -54.1,258.2 25.6,300.5 79.7,42.3 197.6,-23.7 263.2,-147.4"
         style="fill:#727f45;fill-opacity:1;fill-rule:nonzero;stroke:none"
         id="path200" />
      <path
         d="m 17513.5,13264 c 18.9,-138.8 106.7,-241.4 196.2,-229.2 89.4,12.2 146.6,134.5 127.7,273.2 -18.9,138.8 -106.7,241.4 -196.1,229.2 -89.5,-12.2 -146.7,-134.5 -127.8,-273.2"
         style="fill:#727f45;fill-opacity:1;fill-rule:nonzero;stroke:none"
         id="path202" />
      <path
         d="m 17972.1,10626 c -141.2,-3.3 -174.2,-135.4 -302,-255.4 -187.5,-176 -152.2,-329 -37.6,-361.1 114.6,-32 212.6,97.1 337.1,94.3 0.3,0 0.7,0 1.1,0 0.4,0 0.8,0 1.2,0 124.5,2.1 221.7,-127.5 336.5,-96 114.8,31.4 151,184.3 -35.6,361.2 -127.2,120.7 -159.5,252.9 -300.7,257"
         style="fill:#32431c;fill-opacity:1;fill-rule:nonzero;stroke:none"
         id="path204" />
      <path
         d="m 17631.6,10731.6 c 77.8,-107.6 84.7,-235.5 15.4,-285.6 -69.4,-50.2 -188.7,-3.7 -266.5,103.9 -77.8,107.6 -84.7,235.4 -15.3,285.6 69.3,50.2 188.6,3.6 266.4,-103.9"
         style="fill:#32431c;fill-opacity:1;fill-rule:nonzero;stroke:none"
         id="path206" />
      <path
         d="m 18313.1,10729.8 c -78.4,-107.2 -85.9,-235 -16.8,-285.5 69.1,-50.6 188.6,-4.7 267,102.5 78.4,107.2 85.9,235 16.8,285.5 -69.1,50.5 -188.6,4.6 -267,-102.5"
         style="fill:#32431c;fill-opacity:1;fill-rule:nonzero;stroke:none"
         id="path208" />
      <path
         d="m 17936.5,11000.9 c 24.2,-137.9 -28.3,-262.4 -117.2,-278 -88.9,-15.5 -180.6,83.6 -204.7,221.5 -24.2,137.9 28.2,262.3 117.1,277.9 88.9,15.6 180.6,-83.5 204.8,-221.4"
         style="fill:#32431c;fill-opacity:1;fill-rule:nonzero;stroke:none"
         id="path210" />
      <path
         d="m 18009.7,11000.7 c -24.9,-137.8 26.9,-262.5 115.7,-278.6 88.8,-16 181,82.7 205.9,220.4 24.9,137.8 -26.9,262.5 -115.7,278.6 -88.8,16 -181,-82.6 -205.9,-220.4"
         style="fill:#32431c;fill-opacity:1;fill-rule:nonzero;stroke:none"
         id="path212" />
      <path
         d="m 14308.5,12529 c -99.2,54.1 -174.8,-24.3 -311.3,-56.4 -200.3,-47.1 -236.9,-167.3 -170.3,-235.3 66.7,-68 186.1,-17.6 271.3,-69.2 0.3,-0.2 0.5,-0.4 0.8,-0.5 0.3,-0.2 0.5,-0.3 0.8,-0.5 87.1,-48.2 102.8,-176.9 194.9,-201 92.1,-24 178.2,67.5 119.6,264.7 -40,134.4 -9.6,239 -105.8,298.2"
         style="fill:#727f45;fill-opacity:1;fill-rule:nonzero;stroke:none"
         id="path214" />
      <path
         d="m 14114.7,12738.2 c 11,-105.7 -35.4,-197.1 -103.5,-204.1 -68.1,-7.1 -132.2,72.8 -143.1,178.5 -11,105.6 35.3,197 103.4,204 68.1,7.1 132.2,-72.8 143.2,-178.4"
         style="fill:#727f45;fill-opacity:1;fill-rule:nonzero;stroke:none"
         id="path216" />
      <path
         d="m 14586.3,12464.7 c -97.1,-43 -153.4,-128.6 -125.7,-191.2 27.7,-62.6 128.9,-78.5 226.1,-35.6 97.1,43 153.4,128.6 125.7,191.2 -27.7,62.7 -128.9,78.6 -226.1,35.6"
         style="fill:#727f45;fill-opacity:1;fill-rule:nonzero;stroke:none"
         id="path218" />
      <path
         d="m 14433.6,12803.1 c -38.3,-105.3 -124.4,-170.6 -192.2,-145.9 -67.9,24.7 -91.8,130.1 -53.5,235.3 38.3,105.3 124.4,170.6 192.2,145.9 67.9,-24.7 91.8,-130.1 53.5,-235.3"
         style="fill:#727f45;fill-opacity:1;fill-rule:nonzero;stroke:none"
         id="path220" />
      <path
         d="m 14484.2,12773.7 c -72.3,-85.5 -86.2,-192.7 -31,-239.3 55.1,-46.6 158.4,-15 230.7,70.5 72.3,85.6 86.2,192.7 31.1,239.3 -55.2,46.6 -158.5,15 -230.8,-70.5"
         style="fill:#727f45;fill-opacity:1;fill-rule:nonzero;stroke:none"
         id="path222" />
      <path
         d="m 13072.1,13109.4 c -110.3,-24.8 -115.4,-133.6 -196.8,-247.8 -119.5,-167.5 -67.8,-282 27.2,-289.1 94.9,-7.2 151.5,109.5 249.6,126.8 0.3,0.1 0.6,0.1 0.9,0.2 0.3,0.1 0.6,0.1 0.9,0.2 97.3,21.2 193.9,-65.2 279.1,-22.5 85.1,42.6 89.4,168.2 -84.7,277.8 -118.7,74.6 -164.8,173.3 -276.2,154.4"
         style="fill:#727f45;fill-opacity:1;fill-rule:nonzero;stroke:none"
         id="path224" />
      <path
         d="m 12788.4,13138.7 c 78,-72.2 103.4,-171.4 56.9,-221.6 -46.5,-50.3 -147.4,-32.5 -225.4,39.7 -77.9,72.2 -103.3,171.4 -56.8,221.6 46.5,50.3 147.4,32.5 225.3,-39.7"
         style="fill:#727f45;fill-opacity:1;fill-rule:nonzero;stroke:none"
         id="path226" />
      <path
         d="m 13323.3,13244.3 c -44.7,-96.4 -30.5,-197.9 31.6,-226.6 62.1,-28.8 148.7,26 193.4,122.3 44.6,96.4 30.5,197.8 -31.7,226.6 -62.1,28.8 -148.6,-26 -193.3,-122.3"
         style="fill:#727f45;fill-opacity:1;fill-rule:nonzero;stroke:none"
         id="path228" />
      <path
         d="m 12985.3,13397.8 c 40.6,-104.4 19,-210.2 -48.3,-236.4 -67.3,-26.2 -154.8,37.2 -195.4,141.6 -40.6,104.4 -19,210.2 48.3,236.4 67.3,26.2 154.8,-37.2 195.4,-141.6"
         style="fill:#727f45;fill-opacity:1;fill-rule:nonzero;stroke:none"
         id="path230" />
      <path
         d="m 13042.7,13409.2 c 2.1,-112 62.3,-201.7 134.5,-200.4 72.2,1.4 129.1,93.3 127,205.2 -2.1,112 -62.3,201.7 -134.5,200.4 -72.2,-1.4 -129.1,-93.2 -127,-205.2"
         style="fill:#727f45;fill-opacity:1;fill-rule:nonzero;stroke:none"
         id="path232" />
      <path
         d="m 8696.99,11481.8 c 0,35 -4.42,65.1 -13.27,90.2 -8.85,25.1 -23.45,45.7 -43.81,61.7 -20.32,16.1 -46.9,27.9 -79.7,35.6 -32.8,7.6 -73.12,11.5 -120.99,11.5 h -527.31 v -387 h 527.31 c 47.87,0 88.19,3.1 120.99,9.3 32.8,6.2 59.38,16.7 79.7,31.7 20.36,14.9 34.96,34.4 43.81,58.4 8.85,24.1 13.27,53.6 13.27,88.6 z m 368.97,6.6 c 0,-75.1 -9.86,-144.2 -29.53,-207.2 -19.67,-63 -51.32,-117.3 -94.95,-162.9 -43.62,-45.5 -100.2,-81.1 -169.72,-106.6 -69.52,-25.5 -154.15,-38.3 -253.84,-38.3 H 7911.91 V 10499 h -365.06 v 1502.1 h 971.07 c 99.69,0 184.32,-12.6 253.84,-37.8 69.52,-25.1 126.1,-60.5 169.72,-106 43.63,-45.6 75.28,-99.7 94.95,-162.4 19.67,-62.6 29.53,-131.5 29.53,-206.5"
         style="fill:#727f45;fill-opacity:1;fill-rule:nonzero;stroke:none"
         id="path234" />
      <path
         d="m 10504.3,11184.5 c -140.4,-5.9 -259.5,-14.2 -357.6,-25.2 -98.1,-10.9 -179.56,-23.7 -244.48,-38.3 -64.95,-14.5 -115.95,-30.2 -152.99,-47 -37.04,-16.8 -64.81,-33.8 -83.15,-51.3 -18.34,-17.5 -29.67,-35 -33.95,-52.5 -4.25,-17.5 -6.41,-33.5 -6.41,-48.1 0,-17.5 4.28,-34.5 12.81,-50.8 8.52,-16.4 23.44,-30.8 44.77,-43.2 21.33,-12.4 49.67,-22.3 85.09,-29.6 35.43,-7.3 80.03,-10.9 133.83,-10.9 59.67,0 118.08,5.1 175.08,15.3 57.1,10.2 111.2,24.2 162.4,42.1 51.1,17.9 99.2,39 144.1,63.4 44.9,24.4 85.1,50.5 120.5,78.2 z m 0,-685.5 v 147.6 c -46.6,-28.4 -96.5,-53.6 -150,-75.4 -53.5,-21.9 -109,-40.5 -166.8,-55.8 -57.7,-15.3 -117.2,-26.8 -178.5,-34.4 -61.39,-7.6 -123.18,-11.5 -185.5,-11.5 -72.8,0 -143.15,7.7 -211.01,23 -67.9,15.3 -128.11,40.1 -180.55,74.3 -52.51,34.3 -94.62,79.1 -126.45,134.5 -31.8,55.4 -47.69,123.1 -47.69,203.3 0,101.3 24.88,185.7 74.74,253.1 49.84,67.4 125.94,122.6 228.27,165.6 102.32,43 231.72,76.1 388.13,99.5 156.46,23.3 341.56,41.5 555.36,54.6 v 31.7 c 0,24.8 -5.9,49.4 -17.7,73.8 -11.8,24.4 -33.3,45.9 -64.4,64.5 -31.2,18.6 -73.8,33.7 -127.9,45.4 -54.1,11.6 -123.2,17.5 -207.1,17.5 -66.3,0 -131.71,-3.9 -196.31,-11.5 -64.62,-7.7 -126.92,-18 -186.91,-31.2 -60.02,-13.1 -116.96,-28.4 -170.69,-45.9 -53.8,-17.5 -102.68,-35.7 -146.6,-54.6 v 360.7 c 45.9,13.1 97.4,25.9 154.44,38.3 57.04,12.4 116.42,23.1 178.1,32.2 61.65,9.1 123.94,16.4 186.92,21.9 62.97,5.5 123.35,8.2 181.05,8.2 113.5,0 218,-10.4 313.8,-31.2 95.8,-20.8 178.2,-53 247.5,-96.7 69.1,-43.7 123.3,-99.1 162.3,-166.2 39,-67 58.5,-146.9 58.5,-239.4 V 10499 h -365"
         style="fill:#727f45;fill-opacity:1;fill-rule:nonzero;stroke:none"
         id="path236" />
      <path
         d="m 12599.9,12001.1 345.3,-1042.9 373.9,1042.9 h 378.8 l -543,-1502.1 h -405.4 l -353.2,1010.1 -352.2,-1010.1 h -405.4 l -544.1,1502.1 h 379.8 l 366,-1021.1 353.2,1021.1 h 406.3"
         style="fill:#727f45;fill-opacity:1;fill-rule:nonzero;stroke:none"
         id="path238" />
      <path
         d="m 8141.36,9725.4 c 0.14,24.7 -2.88,45.8 -8.99,63.5 -6.11,17.6 -16.29,32 -30.53,43.2 -14.25,11.1 -32.91,19.3 -55.97,24.5 -23.05,5.2 -51.42,7.7 -85.13,7.4 l -371.23,-3.1 -1.66,-272.4 371.24,3.1 c 33.74,0.2 62.15,2.7 85.24,7.2 23.09,4.6 41.86,12.2 56.25,22.8 14.38,10.6 24.74,24.4 31.04,41.4 6.36,17 9.6,37.8 9.74,62.4 z m 259.75,6.8 c -0.33,-52.9 -7.56,-101.5 -21.66,-146 -14.1,-44.5 -36.64,-82.9 -67.54,-115.2 -30.89,-32.3 -70.89,-57.7 -119.91,-76.1 -49.05,-18.3 -108.69,-27.8 -178.85,-28.3 l -426.66,-3.6 -1.98,-334 -256.97,-2.1 6.37,1057.4 683.59,5.6 c 70.2,0.6 129.69,-7.7 178.53,-25 48.84,-17.3 88.48,-41.9 119.05,-73.7 30.5,-31.8 52.54,-69.7 66.1,-113.7 13.59,-44 20.21,-92.5 19.93,-145.3"
         style="fill:#727f45;fill-opacity:1;fill-rule:nonzero;stroke:none"
         id="path240" />
      <path
         d="m 9459.85,9872.9 c -13.16,4.3 -28.48,8.5 -46,12.7 -17.51,4.3 -36.79,7.8 -57.76,10.7 -21.01,2.9 -42.54,4.3 -64.7,4.1 -46.18,-0.4 -89.34,-7 -129.3,-19.9 -40.03,-12.9 -77.43,-29.9 -112.17,-51 -34.74,-21 -67.08,-44.9 -97.03,-71.6 -29.93,-26.7 -57.48,-53.9 -82.58,-81.8 l -3.82,-636.5 -256.93,-2.1 6.37,1057.4 256.93,2.1 -1.04,-171.6 c 31.07,25.9 63.01,50.9 95.66,75 32.74,24.2 66.8,45.6 102.22,64.4 35.43,18.7 72.79,33.8 112.14,45.2 39.27,11.3 80.85,17.2 124.72,17.6 16.66,0.1 33.6,-0.7 50.93,-2.4 17.27,-1.6 34.1,-3.6 50.5,-6.1 16.4,-2.4 31.72,-5.1 46.04,-8 14.27,-3 26.72,-6 37.32,-9 l -1.43,-239.3 c -6.91,2.5 -16.98,5.9 -30.07,10.1"
         style="fill:#727f45;fill-opacity:1;fill-rule:nonzero;stroke:none"
         id="path242" />
      <path
         d="m 9647.74,9046.1 6.36,1057.4 256.94,2.1 -6.37,-1057.4 -256.93,-2.1"
         style="fill:#727f45;fill-opacity:1;fill-rule:nonzero;stroke:none"
         id="path244" />
      <path
         d="m 11109.1,9058.2 3.6,592.6 c 0.2,39.4 -2.6,75.2 -8.4,107.2 -5.8,32 -16.8,59.4 -33.1,82.1 -16.2,22.7 -39,40.2 -68.2,52.5 -29.3,12.3 -67,18.3 -113.2,17.9 -35.1,-0.3 -71.9,-5.8 -110.5,-16.6 -38.7,-10.9 -76.9,-25.2 -114.9,-43 -38,-17.7 -74.2,-38.3 -108.8,-61.6 -34.5,-23.4 -65.2,-47.8 -92.2,-73.1 l -3.9,-663.4 -257,-2.1 6.4,1057.4 256.9,2.1 -0.9,-144.7 c 32.5,20.8 67,41.5 103.6,62.1 36.6,20.5 75.5,39.2 116.7,56 41.2,16.7 84.9,30.4 131.1,41 46.3,10.6 95,16.2 146.3,16.6 64.1,0.6 121.5,-7.6 171.9,-24.3 50.5,-16.8 93.2,-40.8 128.1,-72 34.9,-31.3 61.5,-69.3 80,-114.1 18.4,-44.7 27.4,-94.8 27.1,-150.2 l -4.3,-720.3 -256.3,-2.1"
         style="fill:#727f45;fill-opacity:1;fill-rule:nonzero;stroke:none"
         id="path246" />
      <path
         d="m 12197.3,9894.4 -5,-827.3 -256.9,-2.1 4.9,827.3 -403.7,-3.3 1.4,230.1 1065.1,8.8 -1.3,-230.1 -404.5,-3.4"
         style="fill:#727f45;fill-opacity:1;fill-rule:nonzero;stroke:none"
         id="path248" />
      <path
         d="m 13647.9,9838.7 c -17.9,9.6 -41.7,20.4 -71.2,32.5 -29.5,12.1 -62.8,23.4 -100.2,34.2 -37.3,10.7 -77.9,19.6 -121.7,26.7 -43.9,7.1 -88.8,10.4 -135,10 -36.9,-0.3 -68.5,-1.8 -94.6,-4.6 -26.1,-2.8 -48,-6.3 -65.8,-10.6 -17.8,-4.2 -31.9,-9.1 -42.4,-14.5 -10.4,-5.5 -18.4,-11.1 -23.9,-16.8 -5.6,-5.7 -9.2,-11.3 -10.9,-17 -1.6,-5.7 -2.5,-10.8 -2.5,-15.4 -0.1,-15.4 6.8,-28.8 20.5,-40.2 13.8,-11.4 32.7,-21.6 56.7,-30.3 23.9,-8.8 51.8,-17.1 83.6,-24.8 31.8,-7.7 65.6,-15.6 101.3,-23.7 35.7,-8.2 72.6,-17.1 110.6,-26.8 38.1,-9.7 75,-21.1 110.7,-34.1 35.7,-13.1 69.4,-28.3 101.2,-45.8 31.7,-17.4 59.5,-37.8 83.4,-61.2 23.8,-23.4 42.6,-50.4 56.3,-81.1 13.6,-30.7 20.4,-65.7 20.1,-105.3 -0.3,-50.8 -8.6,-94.4 -25,-131 -16.4,-36.6 -38.1,-67.5 -65.3,-92.9 -27.2,-25.3 -58.6,-45.7 -94.2,-61.2 -35.7,-15.4 -73,-27.4 -112.1,-35.9 -39.1,-8.5 -78.6,-14.2 -118.5,-17.1 -40,-3 -78,-4.5 -114,-4.9 -94.2,-0.7 -181.3,7.2 -261.3,23.7 -80,16.5 -150.6,37.3 -211.9,62.5 l 1.5,252.4 c 63.1,-38.5 135,-68.4 215.9,-89.8 80.9,-21.4 167.5,-31.7 259.9,-30.9 54.5,0.4 99,4 133.4,10.7 34.4,6.7 61.4,15.1 80.8,25.3 19.5,10.2 32.7,21.2 39.7,33 7,11.9 10.5,23.2 10.6,34 0.1,16.9 -6.7,31.6 -20.5,44 -13.8,12.5 -32.7,23.3 -56.6,32.7 -23.9,9.2 -51.8,17.8 -83.6,25.5 -31.9,7.6 -65.6,15.3 -101.4,22.9 -35.7,7.7 -72.5,16 -110.3,24.9 -37.8,8.9 -74.6,19.6 -110.3,31.8 -35.7,12.3 -69.4,26.6 -101.2,43 -31.7,16.4 -59.5,36 -83.4,58.6 -23.9,22.6 -42.6,48.9 -56.3,78.8 -13.7,29.9 -20.4,64.6 -20.2,104.1 0.3,46.7 7.9,87 22.9,121 15,34 35.1,63 60.4,87.1 25.3,24.1 54.6,43.6 87.7,58.8 33.1,15.1 67.9,27 104.4,35.5 36.5,8.5 73.5,14.5 110.9,17.8 37.5,3.4 73,5.3 106.7,5.5 36.9,0.3 74.9,-1.4 113.9,-5.2 39,-3.7 77.4,-9.2 115.2,-16.3 37.8,-7.2 74.4,-15.4 109.7,-24.9 35.2,-9.4 67.8,-19.5 97.8,-30 l -1.5,-244.7"
         style="fill:#727f45;fill-opacity:1;fill-rule:nonzero;stroke:none"
         id="path250" />
      <path
         d="m 8732.16,8703.6 c 0.04,3 -0.36,5.8 -1.18,8.4 -0.8,2.7 -2.23,5 -4.32,7 -2.16,2 -5.04,3.7 -8.7,4.9 -3.64,1.2 -8.31,1.8 -13.99,1.7 l -83.34,-0.7 -0.28,-43.7 83.37,0.7 c 5.68,0.1 10.35,0.7 14.02,1.8 3.67,1.2 6.55,2.8 8.71,4.7 2.16,1.9 3.63,4.2 4.46,6.9 0.82,2.6 1.22,5.4 1.25,8.3 z m 12.56,-92.1 c 0.03,5.4 -0.73,9.6 -2.34,12.8 -1.62,3.2 -4.14,5.6 -7.59,7.4 -3.45,1.7 -7.91,2.8 -13.38,3.3 -5.46,0.6 -12.05,0.8 -19.64,0.7 l -81.71,-0.6 -0.29,-49.3 81.68,0.7 c 7.59,0 14.17,0.3 19.67,0.9 5.47,0.7 9.96,1.9 13.45,3.7 3.46,1.8 5.98,4.4 7.63,7.6 1.65,3.2 2.52,7.5 2.52,12.8 z m 57.4,-6.8 c -0.04,-9 -1.15,-16.9 -3.31,-23.6 -2.16,-6.6 -5.18,-12.4 -9.03,-17.2 -3.85,-4.8 -8.41,-8.8 -13.77,-11.8 -5.36,-3 -11.3,-5.5 -17.73,-7.3 -6.44,-1.8 -13.35,-3 -20.69,-3.8 -7.33,-0.8 -14.88,-1.1 -22.73,-1.2 l -151.91,-1.2 1.4,232.6 149.19,1.2 c 6,0.1 12,-0.1 18.05,-0.7 6.04,-0.5 11.83,-1.5 17.29,-3 5.48,-1.4 10.58,-3.5 15.26,-6.2 4.74,-2.6 8.85,-6.2 12.3,-10.5 3.45,-4.4 6.18,-9.7 8.12,-15.9 1.95,-6.2 2.88,-13.5 2.85,-22 -0.11,-15.1 -3.49,-27.1 -10.26,-36.1 -6.76,-8.9 -17.4,-14.8 -31.82,-17.9 10.18,-0.7 18.88,-2.3 26.11,-4.9 7.22,-2.6 13.12,-6.2 17.65,-10.7 4.58,-4.5 7.92,-10.1 10.01,-16.7 2.08,-6.6 3.09,-14.3 3.02,-23.1"
         style="fill:#727f45;fill-opacity:1;fill-rule:nonzero;stroke:none"
         id="path252" />
      <path
         d="m 9137.6,8649.5 c -21.72,-1.1 -40.21,-2.5 -55.42,-4.4 -15.21,-1.8 -27.8,-3.9 -37.91,-6.2 -10.07,-2.4 -18.02,-4.8 -23.78,-7.5 -5.71,-2.6 -10.03,-5.3 -12.87,-8.1 -2.87,-2.7 -4.67,-5.4 -5.32,-8.1 -0.68,-2.7 -1.01,-5.2 -1.01,-7.5 -0.03,-2.7 0.58,-5.3 1.91,-7.9 1.3,-2.5 3.59,-4.7 6.87,-6.6 3.31,-1.9 7.69,-3.4 13.16,-4.4 5.51,-1.1 12.41,-1.6 20.72,-1.6 9.28,0.1 18.3,1 27.15,2.6 8.85,1.7 17.26,3.9 25.21,6.7 7.92,2.9 15.39,6.2 22.37,10.1 6.98,3.8 13.24,7.9 18.74,12.2 z m -0.65,-106.2 0.14,22.9 c -7.22,-4.5 -15.03,-8.5 -23.3,-11.9 -8.31,-3.4 -16.94,-6.4 -25.89,-8.8 -8.92,-2.5 -18.2,-4.4 -27.7,-5.6 -9.49,-1.3 -19.06,-1.9 -28.73,-2 -11.26,-0.1 -22.19,1 -32.7,3.3 -10.5,2.3 -19.77,6 -27.87,11.2 -8.09,5.3 -14.57,12.2 -19.46,20.7 -4.89,8.6 -7.26,19 -7.19,31.4 0.08,15.7 4.03,28.8 11.79,39.3 7.78,10.5 19.64,19.2 35.54,26 15.9,6.7 35.96,12 60.2,15.9 24.24,3.8 52.95,6.8 86.11,9.1 v 5 c 0.04,3.8 -0.86,7.6 -2.66,11.4 -1.8,3.7 -5.11,7 -9.93,9.8 -4.82,2.9 -11.36,5.2 -19.75,6.9 -8.37,1.7 -19.1,2.6 -32.07,2.5 -10.26,-0.1 -20.4,-0.8 -30.39,-2 -10.07,-1.3 -19.72,-3 -29.03,-5.1 -9.31,-2.1 -18.13,-4.6 -26.47,-7.4 -8.34,-2.8 -15.93,-5.6 -22.77,-8.6 l 0.37,55.9 c 7.08,2.1 15.1,4.1 23.95,6.1 8.85,2 18.05,3.8 27.62,5.2 9.56,1.5 19.2,2.7 28.95,3.6 9.78,1 19.1,1.5 28.09,1.5 17.55,0.2 33.74,-1.3 48.56,-4.4 14.81,-3 27.58,-8 38.26,-14.7 10.64,-6.7 18.99,-15.1 24.96,-25.5 5.97,-10.3 8.91,-22.7 8.85,-37 l -0.94,-154.2 -56.54,-0.5"
         style="fill:#727f45;fill-opacity:1;fill-rule:nonzero;stroke:none"
         id="path254" />
      <path
         d="m 9572.92,8553.7 c -7.4,-2.8 -15.1,-5.2 -23.02,-7.2 -7.98,-2.1 -16.32,-3.7 -25.13,-4.7 -8.81,-1.1 -18.23,-1.7 -28.27,-1.8 -21.37,-0.1 -40.96,2.2 -58.88,7.2 -17.9,4.9 -33.3,12.4 -46.17,22.5 -12.92,10.1 -22.95,22.8 -30.03,38 -7.13,15.3 -10.62,33.1 -10.54,53.5 0.14,20.4 3.88,38.3 11.15,53.7 7.33,15.4 17.48,28.2 30.49,38.5 13.02,10.3 28.52,18.1 46.47,23.4 17.98,5.2 37.62,7.9 58.99,8 10.03,0.1 19.45,-0.3 28.27,-1.2 8.77,-1 17.11,-2.4 25.02,-4.3 7.92,-1.9 15.58,-4.2 22.95,-6.9 7.41,-2.6 14.74,-5.6 22.08,-8.9 l -0.36,-56.6 c -5.75,3.5 -11.87,6.9 -18.19,10.3 -6.4,3.3 -13.45,6.4 -21.15,9.1 -7.7,2.7 -16.19,4.9 -25.4,6.6 -9.27,1.6 -19.67,2.5 -31.25,2.4 -17.8,-0.2 -32.55,-2.3 -44.3,-6.5 -11.77,-4.2 -21.19,-9.7 -28.24,-16.5 -7.05,-6.8 -12.01,-14.6 -14.89,-23.4 -2.91,-8.8 -4.39,-17.8 -4.46,-27.2 -0.03,-6.2 0.54,-12.3 1.73,-18.4 1.15,-6 3.16,-11.7 6,-17 2.81,-5.3 6.47,-10.3 11.04,-14.7 4.54,-4.5 10.22,-8.3 16.98,-11.6 6.8,-3.2 14.74,-5.7 23.81,-7.5 9.1,-1.8 19.57,-2.6 31.43,-2.5 11.58,0.1 22.01,1 31.29,2.7 9.28,1.7 17.77,3.9 25.46,6.7 7.77,2.8 14.82,5.9 21.26,9.4 6.44,3.5 12.55,7.1 18.38,10.8 l -0.36,-56.6 c -7.34,-3.5 -14.71,-6.5 -22.16,-9.3"
         style="fill:#727f45;fill-opacity:1;fill-rule:nonzero;stroke:none"
         id="path256" />
      <path
         d="m 9952.76,8550 c -0.98,12.7 -3.64,23.8 -8.02,33.2 -4.47,9.5 -10,17.7 -16.7,24.6 -6.76,6.8 -14.31,12.4 -22.79,16.9 -8.46,4.4 -17.13,7.9 -26.05,10.5 -8.95,2.6 -17.83,4.4 -26.75,5.4 -8.85,1 -17.13,1.4 -24.75,1.4 l -16.76,-0.1 -0.53,-93 -56.58,-0.5 1.4,232.7 56.58,0.4 -0.58,-89.7 11.58,0.1 c 7.84,0 16.04,0.8 24.57,2.2 8.55,1.4 17.01,3.6 25.42,6.7 8.42,3 16.48,6.8 24.24,11.5 7.74,4.7 14.68,10.4 20.82,17.1 6.16,6.7 11.27,14.5 15.36,23.3 4.11,8.7 6.73,18.7 7.81,29.9 l 57.61,0.5 c -1.11,-12.4 -3.34,-23.5 -6.82,-33.5 -3.46,-9.9 -7.74,-18.8 -12.81,-26.7 -5.07,-7.9 -10.76,-14.8 -16.97,-20.8 -6.23,-5.9 -12.63,-11 -19.14,-15.3 -6.51,-4.3 -13.02,-7.8 -19.5,-10.6 -6.46,-2.8 -12.51,-5 -18.09,-6.5 7.09,-1.2 14.46,-3 22.16,-5.7 7.62,-2.5 15.22,-6 22.69,-10.2 7.52,-4.4 14.65,-9.6 21.47,-15.9 6.84,-6.3 12.95,-13.6 18.42,-22 5.4,-8.4 9.93,-18.1 13.55,-28.9 3.6,-10.7 5.8,-22.9 6.8,-36.5 l -57.64,-0.5"
         style="fill:#727f45;fill-opacity:1;fill-rule:nonzero;stroke:none"
         id="path258" />
      <path
         d="m 10301.2,8791.5 c 20.6,0.1 39.7,-1.6 57.3,-5.4 17.5,-3.7 33.7,-8.6 48.4,-14.6 l -0.4,-56.9 c -5.7,3.6 -12.2,7.1 -19.5,10.4 -7.2,3.3 -15.1,6.2 -23.6,8.8 -8.5,2.5 -17.7,4.5 -27.4,6 -9.7,1.5 -20,2.2 -30.8,2.1 -13.4,-0.1 -25.1,-1.3 -35,-3.5 -10.1,-2.2 -18.6,-5.2 -25.7,-8.9 -7.2,-3.6 -13,-7.9 -17.6,-12.7 -4.6,-4.8 -8.3,-10 -10.9,-15.4 -2.7,-5.5 -4.5,-11 -5.6,-16.7 -1,-5.6 -1.6,-11.1 -1.6,-16.4 0,-4.6 0.3,-9.6 1.2,-15 0.8,-5.4 2.4,-10.8 4.8,-16.2 2.3,-5.5 5.6,-10.6 9.9,-15.5 4.2,-5 9.7,-9.3 16.5,-13.1 6.9,-3.8 15.1,-6.8 24.8,-9 9.6,-2.2 21.1,-3.4 34.4,-3.2 6.7,0 12.5,0.3 17.5,0.8 5,0.5 9.6,1.1 13.7,2 4.1,0.8 8,1.8 11.6,2.9 3.6,1.2 7.3,2.4 11.2,3.7 l 0.2,28.1 -63.4,-0.5 0.3,50.9 119.9,1 -0.7,-118.8 c -7.6,-2.9 -16,-5.6 -25.3,-8 -9.3,-2.3 -18.9,-4.4 -28.8,-6.1 -9.9,-1.7 -19.9,-3.1 -29.8,-4.1 -10,-1 -19.4,-1.5 -28.2,-1.5 -13.7,-0.2 -26.9,0.7 -39.5,2.7 -12.6,1.9 -24.3,4.9 -35.2,9.1 -10.9,4.1 -20.8,9.4 -29.8,15.9 -8.9,6.5 -16.6,14.2 -22.9,23.2 -6.3,8.9 -11.1,19.3 -14.6,30.9 -3.4,11.7 -5.1,24.8 -5,39.4 0.1,14.4 2,27.5 5.8,39.3 3.7,11.7 8.8,22.2 15.4,31.3 6.6,9 14.6,16.9 23.8,23.5 9.2,6.6 19.4,12.1 30.4,16.4 11.1,4.4 22.9,7.6 35.5,9.7 12.5,2.1 25.4,3.3 38.7,3.4"
         style="fill:#727f45;fill-opacity:1;fill-rule:nonzero;stroke:none"
         id="path260" />
      <path
         d="m 10764.7,8739 c -2.9,0.9 -6.3,1.9 -10.2,2.8 -3.8,1 -8,1.7 -12.7,2.4 -4.6,0.6 -9.3,0.9 -14.2,0.8 -10.2,0 -19.6,-1.5 -28.5,-4.3 -8.8,-2.9 -17,-6.6 -24.6,-11.2 -7.7,-4.7 -14.8,-9.9 -21.4,-15.8 -6.5,-5.9 -12.6,-11.9 -18.2,-18 l -0.8,-140 -56.5,-0.5 1.3,232.7 56.6,0.4 -0.2,-37.7 c 6.8,5.7 13.9,11.2 21,16.5 7.2,5.3 14.7,10 22.5,14.1 7.8,4.2 16,7.5 24.7,10 8.7,2.5 17.8,3.8 27.4,3.8 3.7,0.1 7.4,-0.1 11.3,-0.4 3.8,-0.4 7.4,-0.9 11,-1.4 3.7,-0.5 7,-1.1 10.2,-1.8 3.1,-0.7 5.9,-1.3 8.2,-1.9 l -0.3,-52.7 c -1.5,0.5 -3.7,1.3 -6.6,2.2"
         style="fill:#727f45;fill-opacity:1;fill-rule:nonzero;stroke:none"
         id="path262" />
      <path
         d="m 11126.7,8675.9 c 0,8.7 -1.2,17.3 -3.6,25.9 -2.4,8.7 -6.8,16.4 -13.1,23.2 -6.3,6.9 -14.9,12.4 -25.9,16.6 -11,4.2 -24.9,6.2 -41.8,6.1 -11.4,-0.1 -21.5,-1.2 -30.1,-3.2 -8.6,-2.1 -16.2,-4.9 -22.5,-8.4 -6.3,-3.6 -11.6,-7.7 -15.9,-12.5 -4.3,-4.7 -7.7,-9.7 -10.3,-15.1 -2.6,-5.4 -4.4,-11 -5.5,-16.8 -1.1,-5.8 -1.7,-11.5 -1.7,-17.2 0,-5.7 0.4,-11.6 1.5,-17.4 1,-5.9 2.8,-11.5 5.3,-16.8 2.5,-5.4 5.9,-10.3 10.1,-14.9 4.2,-4.6 9.5,-8.6 15.8,-12 6.3,-3.4 13.7,-6 22.3,-7.9 8.6,-2 18.7,-2.8 30.1,-2.7 16.9,0.1 30.9,2.3 41.9,6.7 11,4.4 19.7,10.1 26.1,17 6.4,6.9 10.8,14.7 13.4,23.4 2.5,8.6 3.8,17.3 3.9,26 z m 57.1,0.5 c -0.1,-20 -3.5,-37.6 -10.2,-53 -6.7,-15.3 -16.2,-28.2 -28.6,-38.6 -12.3,-10.4 -27.3,-18.3 -44.8,-23.7 -17.6,-5.3 -37.3,-8.1 -59.1,-8.3 -21.9,-0.2 -41.6,2.3 -59.2,7.4 -17.6,5.1 -32.6,12.7 -44.9,22.9 -12.4,10.2 -21.8,22.9 -28.4,38.1 -6.6,15.3 -9.9,32.8 -9.8,52.8 0.1,20 3.6,37.7 10.4,53 6.8,15.4 16.5,28.2 28.9,38.6 12.4,10.4 27.5,18.3 45.2,23.7 17.6,5.3 37.4,8.1 59.2,8.3 21.8,0.2 41.5,-2.3 59,-7.4 17.5,-5.1 32.4,-12.7 44.6,-22.9 12.3,-10.2 21.6,-22.8 28.1,-38.1 6.6,-15.2 9.8,-32.9 9.6,-52.8"
         style="fill:#727f45;fill-opacity:1;fill-rule:nonzero;stroke:none"
         id="path264" />
      <path
         d="m 11397.8,8794.6 -0.8,-131 c -0.1,-8.7 0.6,-16.6 1.8,-23.6 1.3,-7.1 3.7,-13.1 7.3,-18.1 3.5,-5 8.4,-8.9 14.8,-11.5 6.4,-2.7 14.7,-4.1 25,-4 7.7,0.1 15.8,1.3 24.3,3.8 8.5,2.4 16.9,5.7 25.3,9.7 8.3,4 16.3,8.6 23.9,13.8 7.6,5.2 14.4,10.6 20.5,16.2 l 0.9,145.9 56.4,0.5 -1.4,-232.7 -56.4,-0.4 0.1,31.8 c -7.1,-4.5 -14.7,-9.2 -22.7,-13.8 -8.1,-4.7 -16.6,-8.9 -25.7,-12.6 -9.1,-3.7 -18.7,-6.8 -28.9,-9.2 -10.2,-2.4 -20.9,-3.6 -32.2,-3.8 -14.1,-0.1 -26.7,1.7 -37.9,5.4 -11.1,3.7 -20.5,9 -28.2,15.9 -7.7,6.8 -13.6,15.2 -17.6,25.1 -4.1,9.8 -6.1,20.8 -6,33 l 0.9,159.2 56.6,0.4"
         style="fill:#727f45;fill-opacity:1;fill-rule:nonzero;stroke:none"
         id="path266" />
      <path
         d="m 11966.9,8566.7 0.8,130.4 c 0,8.7 -0.6,16.5 -1.9,23.6 -1.2,7 -3.6,13 -7.2,18 -3.6,5 -8.6,8.9 -15.1,11.6 -6.4,2.7 -14.7,4.1 -24.8,3.9 -7.7,0 -15.9,-1.3 -24.4,-3.6 -8.4,-2.4 -16.9,-5.6 -25.3,-9.5 -8.3,-3.9 -16.3,-8.4 -23.9,-13.6 -7.6,-5.1 -14.3,-10.4 -20.3,-16 l -0.8,-146 -56.6,-0.4 1.4,232.6 56.6,0.5 -0.3,-31.9 c 7.2,4.6 14.8,9.2 22.8,13.7 8.1,4.5 16.7,8.6 25.7,12.3 9.1,3.7 18.7,6.7 28.9,9 10.2,2.4 20.9,3.6 32.2,3.7 14.1,0.1 26.7,-1.7 37.8,-5.3 11.1,-3.7 20.5,-9.1 28.2,-15.9 7.7,-6.9 13.6,-15.3 17.6,-25.1 4,-9.8 6,-20.9 5.9,-33 l -0.9,-158.5 -56.4,-0.5"
         style="fill:#727f45;fill-opacity:1;fill-rule:nonzero;stroke:none"
         id="path268" />
      <path
         d="m 12394.3,8686.8 c 0,11.1 -1.2,20.8 -3.8,29 -2.5,8.2 -6.6,15 -12.4,20.3 -5.6,5.3 -13.1,9.3 -22.3,11.9 -9.3,2.5 -20.5,3.8 -33.8,3.7 l -70.3,-0.6 -0.8,-131.4 70.3,0.6 c 13.3,0.1 24.5,1.5 33.8,4.3 9.3,2.7 16.8,6.8 22.6,12.3 5.7,5.5 10,12.4 12.6,20.7 2.6,8.2 4,18 4.1,29.2 z m 57,0.4 c -0.1,-14.9 -1.7,-28.2 -4.7,-39.7 -3,-11.6 -7.2,-21.8 -12.6,-30.4 -5.4,-8.6 -11.8,-15.9 -19.3,-22 -7.6,-6 -15.9,-10.9 -25,-14.6 -9.2,-3.6 -19.1,-6.4 -29.7,-8.1 -10.5,-1.7 -21.6,-2.6 -33,-2.7 l -132.9,-1.1 1.3,232.7 132.6,1 c 11.5,0.1 22.5,-0.6 33.1,-2.2 10.6,-1.5 20.4,-4 29.6,-7.6 9.2,-3.5 17.5,-8.2 25,-14.1 7.5,-5.8 13.8,-13.1 19.1,-21.7 5.3,-8.6 9.4,-18.6 12.3,-30.1 2.8,-11.5 4.3,-24.6 4.2,-39.4"
         style="fill:#727f45;fill-opacity:1;fill-rule:nonzero;stroke:none"
         id="path270" />
    </g>
  </g>
</svg>
